<?xml version="1.0" encoding="iso-8859-1"?>
<!-- Generator: Adobe Illustrator 23.0.4, SVG Export Plug-In . SVG Version: 6.00 Build 0)  -->
<svg version="1.1" id="&#x30EC;&#x30A4;&#x30E4;&#x30FC;_1" focusable="false"
	 xmlns="http://www.w3.org/2000/svg" xmlns:xlink="http://www.w3.org/1999/xlink" x="0px" y="0px" viewBox="0 0 320 320"
	 style="enable-background:new 0 0 320 320;" xml:space="preserve">
<path d="M207.6,160.003l107.72-107.72c6.23-6.23,6.23-16.34,0-22.58l-25.03-25.03c-6.23-6.23-16.34-6.23-22.58,0L160,112.402
	L52.28,4.683c-6.23-6.23-16.34-6.23-22.58,0L4.68,29.703c-6.23,6.23-6.23,16.34,0,22.58l107.72,107.72L4.68,267.723
	c-6.23,6.23-6.23,16.34,0,22.58l25.03,25.03c6.23,6.23,16.34,6.23,22.58,0L160,207.603l107.72,107.72c6.23,6.23,16.34,6.23,22.58,0
	l25.03-25.03c6.23-6.23,6.23-16.34,0-22.58L207.6,160.003z"/>
</svg>
