<?xml version="1.0" encoding="utf-8"?>
<!-- Generator: Adobe Illustrator 23.0.4, SVG Export Plug-In . SVG Version: 6.00 Build 0)  -->
<svg version="1.1" id="レイヤー_1" focusable="false"
	 xmlns="http://www.w3.org/2000/svg" xmlns:xlink="http://www.w3.org/1999/xlink" x="0px" y="0px" viewBox="0 0 320 320"
	 style="enable-background:new 0 0 320 320;" xml:space="preserve">
<style type="text/css">
	.st0{fill:#CCCCCC;}
</style>
<path class="st0" d="M193.9,160L296.5,57.4l21.1-21.1c3.1-3.1,3.1-8.2,0-11.3L295,2.4c-3.1-3.1-8.2-3.1-11.3,0L160,126.1L36.3,2.3
	c-3.1-3.1-8.2-3.1-11.3,0L2.3,25c-3.1,3.1-3.1,8.2,0,11.3L126.1,160L2.3,283.7c-3.1,3.1-3.1,8.2,0,11.3L25,317.6
	c3.1,3.1,8.2,3.1,11.3,0L160,193.9l102.6,102.6l21.1,21.1c3.1,3.1,8.2,3.1,11.3,0l22.6-22.6c3.1-3.1,3.1-8.2,0-11.3L193.9,160z"/>
</svg>
