<?xml version="1.0" encoding="UTF-8"?>
<svg width="448px" height="384px" viewBox="0 0 448 384" version="1.1" xmlns="http://www.w3.org/2000/svg" xmlns:xlink="http://www.w3.org/1999/xlink">
    <!-- Generator: Sketch 60.1 (88133) - https://sketch.com -->
    <title>form</title>
    <desc>Created with Sketch.</desc>
    <g id="Page-1" stroke="none" stroke-width="1" fill="none" fill-rule="evenodd">
        <g id="form" transform="translate(0.000000, -32.000000)" fill-rule="nonzero">
            <path d="M432,32 C440.823,32 448,39.178 448,48 L448,400 C448,408.822 440.823,416 432,416 L16,416 C7.177,416 0,408.822 0,400 L0,48 C0,39.178 7.177,32 16,32 L432,32" id="Shape-Copy" fill="#613FB0"></path>
            <path d="M96,96 C78.327,96 64,110.327 64,128 C64,145.673 78.327,160 96,160 C113.673,160 128,145.673 128,128 C128,110.327 113.673,96 96,96 Z M96,192 C78.327,192 64,206.327 64,224 C64,241.673 78.327,256 96,256 C113.673,256 128,241.673 128,224 C128,206.327 113.673,192 96,192 Z M96,288 C78.327,288 64,302.327 64,320 C64,337.673 78.327,352 96,352 C113.673,352 128,337.673 128,320 C128,302.327 113.673,288 96,288 Z M384,140 L384,116 C384,112.686292 381.313708,110 378,110 L166,110 C162.686292,110 160,112.686292 160,116 L160,140 C160,143.313708 162.686292,146 166,146 L378,146 C381.313708,146 384,143.313708 384,140 Z M384,236 L384,212 C384,208.686292 381.313708,206 378,206 L166,206 C162.686292,206 160,208.686292 160,212 L160,236 C160,239.313708 162.686292,242 166,242 L378,242 C381.313708,242 384,239.313708 384,236 Z M384,332 L384,308 C384,304.686292 381.313708,302 378,302 L166,302 C162.686292,302 160,304.686292 160,308 L160,332 C160,335.313708 162.686292,338 166,338 L378,338 C381.313708,338 384,335.313708 384,332 Z" id="Shape" fill="#FFFFFF"></path>
        </g>
    </g>
</svg>