<?xml version="1.0" encoding="UTF-8"?>
<svg width="18px" height="18px" viewBox="0 0 18 18" version="1.1" xmlns="http://www.w3.org/2000/svg" xmlns:xlink="http://www.w3.org/1999/xlink">
    <!-- Generator: Sketch 57.1 (83088) - https://sketch.com -->
    <title>icon/search</title>
    <desc>Created with Sketch.</desc>
    <g id="Symbols" stroke="none" stroke-width="1" fill="none" fill-rule="evenodd">
        <g id="header" transform="translate(-973.000000, -134.000000)" fill="#000000">
            <g id="icon/search" transform="translate(972.000000, 133.000000)">
                <path d="M18.8760803,17.4839607 L14.6083199,13.2162004 C14.5274645,13.135345 14.4220009,13.0931595 14.3095064,13.0931595 L13.8454665,13.0931595 C14.9528343,11.810019 15.6242859,10.1401787 15.6242859,8.31214296 C15.6242859,4.27288707 12.3513989,1 8.31214296,1 C4.27288707,1 1,4.27288707 1,8.31214296 C1,12.3513989 4.27288707,15.6242859 8.31214296,15.6242859 C10.1401787,15.6242859 11.810019,14.9528343 13.0931595,13.8454665 L13.0931595,14.3095064 C13.0931595,14.4220009 13.1388604,14.5274645 13.2162004,14.6083199 L17.4839607,18.8760803 C17.6491871,19.0413066 17.9163615,19.0413066 18.0815878,18.8760803 L18.8760803,18.0815878 C19.0413066,17.9163615 19.0413066,17.6491871 18.8760803,17.4839607 Z M8.31214296,13.9368683 C5.2044822,13.9368683 2.68741761,11.4198037 2.68741761,8.31214296 C2.68741761,5.2044822 5.2044822,2.68741761 8.31214296,2.68741761 C11.4198037,2.68741761 13.9368683,5.2044822 13.9368683,8.31214296 C13.9368683,11.4198037 11.4198037,13.9368683 8.31214296,13.9368683 Z" id="Shape"></path>
            </g>
        </g>
    </g>
</svg>