<?xml version="1.0" encoding="utf-8"?>
<!-- Generator: Adobe Illustrator 23.0.4, SVG Export Plug-In . SVG Version: 6.00 Build 0)  -->
<svg version="1.1" id="レイヤー_1" xmlns="http://www.w3.org/2000/svg" xmlns:xlink="http://www.w3.org/1999/xlink" x="0px"
	 y="0px" viewBox="0 0 18 18" style="enable-background:new 0 0 18 18;" xml:space="preserve">
<style type="text/css">
	.st0{fill-rule:evenodd;clip-rule:evenodd;fill:#999999;}
</style>
<title>icon/search</title>
<desc>Created with Sketch.</desc>
<g id="Symbols">
	<g id="header" transform="translate(-973.000000, -134.000000)">
		<g transform="translate(972.000000, 133.000000)">
			<path id="Shape" class="st0" d="M18.9,17.5l-4.3-4.3c-0.1-0.1-0.2-0.1-0.3-0.1h-0.5c1.1-1.3,1.8-3,1.8-4.8c0-4-3.3-7.3-7.3-7.3
				S1,4.3,1,8.3s3.3,7.3,7.3,7.3c1.8,0,3.5-0.7,4.8-1.8v0.5c0,0.1,0,0.2,0.1,0.3l4.3,4.3c0.2,0.2,0.4,0.2,0.6,0l0.8-0.8
				C19,17.9,19,17.6,18.9,17.5z M8.3,13.9c-3.1,0-5.6-2.5-5.6-5.6s2.5-5.6,5.6-5.6s5.6,2.5,5.6,5.6S11.4,13.9,8.3,13.9z"/>
		</g>
	</g>
</g>
</svg>
