<?xml version="1.0" encoding="iso-8859-1"?>
<!-- Generator: Adobe Illustrator 23.0.4, SVG Export Plug-In . SVG Version: 6.00 Build 0)  -->
<svg version="1.1" id="Logo_FIXED" xmlns="http://www.w3.org/2000/svg" xmlns:xlink="http://www.w3.org/1999/xlink" x="0px" y="0px"
	 viewBox="0 0 250 250" style="enable-background:new 0 0 250 250;" xml:space="preserve">
<title>Twitter</title>
<path fill="#1da1f2" d="M78.62,226.569c94.34,0,145.94-78.16,145.94-145.94c0-2.22,0-4.43-0.15-6.63c10.038-7.261,18.704-16.251,25.59-26.55
	c-9.361,4.148-19.292,6.868-29.46,8.07c10.707-6.41,18.721-16.492,22.55-28.37c-10.068,5.975-21.084,10.185-32.57,12.45
	c-19.425-20.655-51.916-21.652-72.572-2.227c-13.321,12.528-18.973,31.195-14.838,49.007C81.869,84.312,43.445,64.832,17.4,32.789
	c-13.614,23.436-6.66,53.419,15.88,68.47c-8.163-0.242-16.147-2.444-23.28-6.42c0,0.21,0,0.43,0,0.65
	c0.007,24.416,17.218,45.445,41.15,50.28c-7.551,2.059-15.474,2.36-23.16,0.88c6.719,20.894,25.976,35.208,47.92,35.62
	c-18.163,14.274-40.599,22.023-63.7,22c-4.081-0.008-8.158-0.255-12.21-0.74c23.456,15.053,50.749,23.037,78.62,23"/>
</svg>
